<!--?xml version="1.0" standalone="no"?-->
              <svg id="sw-js-blob-svg" viewBox="0 0 100 100" xmlns="http://www.w3.org/2000/svg" version="1.1">
                    <defs> 
                        <linearGradient id="sw-gradient" x1="0" x2="1" y1="1" y2="0">
                            <stop id="stop1" stop-color="rgba(55, 185.883, 248, 1)" offset="0%"></stop>
                            <stop id="stop2" stop-color="rgba(217.211, 31, 251, 1)" offset="100%"></stop>
                        </linearGradient>
                    </defs>
                <path fill="url(#sw-gradient)" d="M21.2,-34.3C27.2,-33.3,31.4,-27,31.1,-20.3C30.7,-13.7,25.8,-6.9,24.6,-0.7C23.3,5.4,25.7,10.8,25.6,16.6C25.4,22.4,22.8,28.7,18.1,32.7C13.4,36.7,6.7,38.4,0.4,37.8C-5.9,37.1,-11.9,33.9,-17.6,30.5C-23.3,27.1,-28.8,23.5,-33.6,18.3C-38.5,13.2,-42.7,6.6,-42.5,0.1C-42.3,-6.4,-37.7,-12.7,-32.9,-18C-28.1,-23.2,-23.1,-27.3,-17.6,-28.5C-12.1,-29.8,-6,-28.2,0.8,-29.5C7.6,-30.9,15.3,-35.3,21.2,-34.3Z" width="100%" height="100%" transform="translate(50 50)" style="transition: all 0.3s ease 0s;" stroke-width="0" stroke="url(#sw-gradient)"></path>
              </svg>