<?xml version="1.0" encoding="UTF-8"?>
<!DOCTYPE svg PUBLIC "-//W3C//DTD SVG 1.1//EN" "http://www.w3.org/Graphics/SVG/1.1/DTD/svg11.dtd">
<svg xmlns="http://www.w3.org/2000/svg" version="1.1" width="50px" height="50px" style="shape-rendering:geometricPrecision; text-rendering:geometricPrecision; image-rendering:optimizeQuality; fill-rule:evenodd; clip-rule:evenodd" xmlns:xlink="http://www.w3.org/1999/xlink">
<g><path style="opacity:0.881" fill="#000000" d="M 49.5,13.5 C 49.5,14.8333 49.5,16.1667 49.5,17.5C 41.1607,25.5062 32.8274,33.5062 24.5,41.5C 16.1726,33.5062 7.83926,25.5062 -0.5,17.5C -0.5,16.1667 -0.5,14.8333 -0.5,13.5C 1.62976,11.8729 3.62976,10.0396 5.5,8C 6.5,7.33333 7.5,7.33333 8.5,8C 13.3158,13.9828 18.6491,19.4828 24.5,24.5C 30.3509,19.4828 35.6842,13.9828 40.5,8C 41.5,7.33333 42.5,7.33333 43.5,8C 45.3702,10.0396 47.3702,11.8729 49.5,13.5 Z"/></g>
</svg>
