<?xml version="1.0" encoding="UTF-8"?>
<!DOCTYPE svg PUBLIC "-//W3C//DTD SVG 1.1//EN" "http://www.w3.org/Graphics/SVG/1.1/DTD/svg11.dtd">
<svg xmlns="http://www.w3.org/2000/svg" version="1.1" width="50px" height="50px" style="shape-rendering:geometricPrecision; text-rendering:geometricPrecision; image-rendering:optimizeQuality; fill-rule:evenodd; clip-rule:evenodd" xmlns:xlink="http://www.w3.org/1999/xlink">
<g><path style="opacity:0.813" fill="#000000" d="M 3.5,9.5 C 17.5,9.5 31.5,9.5 45.5,9.5C 45.5,11.1667 45.5,12.8333 45.5,14.5C 31.5,14.5 17.5,14.5 3.5,14.5C 3.5,12.8333 3.5,11.1667 3.5,9.5 Z"/></g>
<g><path style="opacity:0.69" fill="#000000" d="M 5.5,21.5 C 18.1711,21.3334 30.8377,21.5001 43.5,22C 46.1667,23.6667 46.1667,25.3333 43.5,27C 30.8333,27.6667 18.1667,27.6667 5.5,27C 2.98238,25.1899 2.98238,23.3566 5.5,21.5 Z"/></g>
<g><path style="opacity:0.813" fill="#000000" d="M 3.5,34.5 C 17.5,34.5 31.5,34.5 45.5,34.5C 45.5,36.1667 45.5,37.8333 45.5,39.5C 31.5,39.5 17.5,39.5 3.5,39.5C 3.5,37.8333 3.5,36.1667 3.5,34.5 Z"/></g>
</svg>
